<svg id="bfcc01f0-8668-4fcc-b742-70b4b6ec72b0" data-name="Layer 1" xmlns="http://www.w3.org/2000/svg" viewBox="0 0 53 63"><path d="M8.08.76h0A5.39,5.39,0,0,0,6.17.17l-.3,0H5.54a5.23,5.23,0,0,0-3,.9,5.39,5.39,0,0,0-2,2.35A6,6,0,0,0,.2,4.46,5.29,5.29,0,0,0,.2,6.7,6,6,0,0,0,.55,7.76a5.53,5.53,0,0,0,2,2.34,5.17,5.17,0,0,0,3,.91,6.12,6.12,0,0,0,1.24-.13,5.55,5.55,0,0,0,1.1-.39l.18-.1h0v.78H11V.13H8.08ZM7.84,6.58a2.77,2.77,0,0,1-.54.79,2.43,2.43,0,0,1-.8.53,2.48,2.48,0,0,1-1,.19,2.15,2.15,0,0,1-.92-.2,2.57,2.57,0,0,1-.8-.54,2.63,2.63,0,0,1-.56-.79,2.27,2.27,0,0,1,0-1.93,2.38,2.38,0,0,1,.55-.81,2.6,2.6,0,0,1,.8-.55,2.18,2.18,0,0,1,.94-.2,2.3,2.3,0,0,1,1,.2,2.77,2.77,0,0,1,.81.55,2.7,2.7,0,0,1,.55.81,2.38,2.38,0,0,1,.2,1A2.55,2.55,0,0,1,7.84,6.58ZM30.43,5.27A2.72,2.72,0,0,1,32,7.78a3.13,3.13,0,0,1-2.3,3.05,6.72,6.72,0,0,1-2.12.33,5.34,5.34,0,0,1-3-.84,3.33,3.33,0,0,1-1.41-1.88,4.1,4.1,0,0,1-.12-1h2.58s0,.13,0,.15c.31,1.16,1.9,1.17,1.9,1.17,1.18,0,1.49-.38,1.57-.66a.55.55,0,0,0,0-.38c-.18-.38-.93-.59-2.21-.87a9.14,9.14,0,0,1-2.73-1A2.72,2.72,0,0,1,23,3.55a3.13,3.13,0,0,1,2.18-3A7.09,7.09,0,0,1,27.37.11a4.37,4.37,0,0,1,3.37,1.25,3.18,3.18,0,0,1,.85,2.08h-2.7v0a.77.77,0,0,0-.08-.19l0,0a1,1,0,0,0-.37-.36,2.17,2.17,0,0,0-1.08-.23s-1.43,0-1.43.71h0c0,.45.54.77,1.61,1a9.76,9.76,0,0,1,2.93,1m6.65-.78H39.5v6.67H37.08v-1a2.49,2.49,0,0,1-2,1h-.18a2.07,2.07,0,0,1-2.11-1.57,4.08,4.08,0,0,1-.1-.87V4.49h2.39V7.84C35.12,9.13,36.17,9,36.17,9a1,1,0,0,0,.91-1V4.49Zm6,1.32a1.67,1.67,0,0,1,1.53-1.3h1.11v2.4H45.3c-1,0-2.21.24-2.21,2.23v2H40.61V4.49H43v0h0V5.81m9.78,2a3.36,3.36,0,0,0-3.29-3.34h-.07a3.73,3.73,0,0,0-.68.07l-.27.06a3.34,3.34,0,1,0,3.72,5.09h0v0h0A2.84,2.84,0,0,0,52.61,9H50.7a1.52,1.52,0,0,1-1.31.52,1.43,1.43,0,0,1-1.38-1h4.73A3.36,3.36,0,0,0,52.82,7.83ZM48,7.08a1.61,1.61,0,0,1,2.83,0Zm-26.11-2a4.48,4.48,0,0,1-7,5.1v1H12.08V.13H15V3.21a4.48,4.48,0,0,1,5.95.32l-3.13,3-1.4-1.45L14.66,6.74,17.3,9.53ZM3.75,54.92a2.83,2.83,0,0,1,2.64,1.14,2.52,2.52,0,0,1,.53,1.61v.14a2.62,2.62,0,0,1-2.17,2.63,5.8,5.8,0,0,1-1.29.14H2.28v2.29H.08V54.92ZM2.28,56.78v1.91h1c.71,0,1.12-.08,1.23-.25a1.11,1.11,0,0,0,.18-.61c0-.7-.45-1-1.34-1Zm8.09,3.8H10.2v2.29H8V54.92h3.68a2.83,2.83,0,0,1,2.64,1.14,2.52,2.52,0,0,1,.53,1.61v.14a2.6,2.6,0,0,1-2.06,2.6c1.09,1.4,2,2.46,2,2.46H12.15S11.3,61.87,10.37,60.58Zm-.17-3.8v1.91h1c.71,0,1.12-.08,1.23-.25a1.11,1.11,0,0,0,.18-.61c0-.7-.45-1-1.34-1Zm9.67,6.09A4,4,0,0,1,17,61.7a3.88,3.88,0,0,1,0-5.61,4.17,4.17,0,0,1,5.79,0,3.9,3.9,0,0,1,0,5.61,4,4,0,0,1-2.9,1.17m-1.93-4v0a2,2,0,0,0,.92,1.72,1.8,1.8,0,0,0,.94.28H20a1.85,1.85,0,0,0,1.75-1.35,3.19,3.19,0,0,0,.08-.63V58.8A2,2,0,0,0,20.69,57a1.92,1.92,0,0,0-.85-.19,1.8,1.8,0,0,0-1.7,1.11,2.06,2.06,0,0,0-.2.93m7.44-3.93h3.41a23.56,23.56,0,0,1,.66,2.61c.08.24.25.92.5,2.05H30l1.12-4.66H34.6v7.93H32.3V57.79a6.81,6.81,0,0,0-.39,1.37c0,.08-.37,1.31-1,3.7h-1.8a8.1,8.1,0,0,1-.41-1.43l-1-3.64h0v5.07H25.33V55a0,0,0,0,1,.05,0m10.72,0h2.28v7.95H36.1Zm6.79,0a3.08,3.08,0,0,1,2.38.89,2.4,2.4,0,0,1,.6,1.54H44a.77.77,0,0,0-.27-.5,1.39,1.39,0,0,0-.8-.17c-.62,0-1,.14-1,.41a.2.2,0,0,1,0,.08q0,.48,1.14.69a6.83,6.83,0,0,1,2.09.73,1.93,1.93,0,0,1,1.07,1.78,2.21,2.21,0,0,1-1.63,2.16,4.64,4.64,0,0,1-1.51.24,3.79,3.79,0,0,1-2.15-.6,2.48,2.48,0,0,1-1-1.33,3.25,3.25,0,0,1-.08-.75h1.8a1.38,1.38,0,0,0,.49.71,1.71,1.71,0,0,0,.81.15h.26c.65,0,1-.22,1-.52s-.53-.59-1.6-.75a6.51,6.51,0,0,1-1.94-.68,1.92,1.92,0,0,1-.81-1.63,2.21,2.21,0,0,1,1.55-2.17A5.13,5.13,0,0,1,42.89,55m10,0v1.89H49.37V58h3.51v1.7H49.37V61h3.51v1.91h-5.7V54.92ZM48.32,32.18c-1.39-1-4.26-2-8.61-3-3.13-.57-4.7-1.52-4.7-2.83h0c0-2.15,4.2-2.08,4.2-2.08a6.16,6.16,0,0,1,3.16.69,2.94,2.94,0,0,1,1.08,1l.07.11a2.48,2.48,0,0,1,.25.57s0,.08,0,.13h7.9a9.21,9.21,0,0,0-2.49-6.08c-2.24-2.45-5.53-3.67-9.84-3.67a20.5,20.5,0,0,0-6.57,1.15q-6.39,2.63-6.39,8.94a7.89,7.89,0,0,0,3.37,6.72c1.51,1,4.17,2,8,2.83s6,1.42,6.48,2.54a1.65,1.65,0,0,1,0,1.12c-.21.81-1.13,1.9-4.59,1.94h-.09l-.33,0a9.84,9.84,0,0,1-1.2-.19,5.26,5.26,0,0,1-4-4.79H23V17.05H15L.08,37.23v6.1H15.94v6.1H23V43h4.32a11.31,11.31,0,0,0,3.58,4,15.51,15.51,0,0,0,8.87,2.48,19.42,19.42,0,0,0,6.21-1q6.74-2.64,6.74-8.94A8,8,0,0,0,48.32,32.18ZM7.87,37.28l8.07-11.22V37.28Z" fill="#fff" fill-rule="evenodd"/></svg>