<svg xmlns="http://www.w3.org/2000/svg" viewBox="0 0 174.23 290.91"><defs><style>.cls-1,.cls-2,.cls-4{fill:none;}.cls-1,.cls-2,.cls-3{stroke:#000000;}.cls-1,.cls-2,.cls-3,.cls-4{stroke-miterlimit:10;stroke-width:7px;}.cls-2{stroke-linecap:round;}.cls-3{fill:#ffffff;}.cls-4{stroke:#00afa0;}</style></defs><title>automatic_clr</title><g id="Layer_2" data-name="Layer 2"><g id="Layer_2-2" data-name="Layer 2"><rect class="cls-1" x="41.15" y="3.5" width="66.92" height="283.91" rx="28.39" ry="28.39" transform="translate(149.21 290.91) rotate(-180)"/><line class="cls-2" x1="74.61" y1="33.92" x2="74.61" y2="260.37"/><rect class="cls-3" x="3.5" y="57.19" width="146.01" height="75.03" rx="28.39" ry="28.39" transform="translate(153.01 189.41) rotate(-180)"/><rect class="cls-1" x="149.51" y="70.37" width="21.21" height="48.67" rx="10.01" ry="10.01" transform="translate(320.24 189.41) rotate(180)"/><rect class="cls-4" x="153.02" y="35.61" width="14.53" height="14.53" rx="4.73" ry="4.73" transform="translate(320.57 85.75) rotate(-180)"/><rect class="cls-4" x="153.02" y="138.19" width="14.53" height="14.53" rx="4.73" ry="4.73" transform="translate(320.57 290.91) rotate(-180)"/><rect class="cls-4" x="153.02" y="186.35" width="14.53" height="14.53" rx="4.73" ry="4.73" transform="translate(320.57 387.23) rotate(-180)"/><rect class="cls-4" x="153.02" y="238.56" width="14.53" height="14.53" rx="4.73" ry="4.73" transform="translate(320.57 491.66) rotate(-180)"/></g></g></svg>