<svg data-name="Layer 1" xmlns="http://www.w3.org/2000/svg" viewBox="0 0 118 16"><path d="M111 14.14h-2v-3.92a5.55 5.55 0 00-.11-1.47 1 1 0 00-.42-.5 1.39 1.39 0 00-.74-.19 1.83 1.83 0 00-.92.24 1.38 1.38 0 00-.59.71 4.21 4.21 0 00-.19 1.41v3.7h-2V3.94H106v3.75a3.1 3.1 0 012.38-1.11 3.16 3.16 0 011.29.25 2.12 2.12 0 01.86.64 2.3 2.3 0 01.4.87A7.91 7.91 0 01111 9.8zm-9.49-.5a3.9 3.9 0 01-2.39.68 3.71 3.71 0 01-2.73-1 3.86 3.86 0 01-1-2.83 3.87 3.87 0 011-2.85 3.7 3.7 0 012.76-1 3.88 3.88 0 012.26.52 2.92 2.92 0 011.19 2.26h-2a1.73 1.73 0 00-.44-1 1.4 1.4 0 00-.94-.29 1.53 1.53 0 00-1.23.5 2.4 2.4 0 00-.46 1.68 2.86 2.86 0 00.47 1.86 1.6 1.6 0 001.25.55 1.66 1.66 0 001-.24c.25-.21.3-.25.41-.77l2.06-.07a3.36 3.36 0 01-1.21 2zm-11.73-1.27a1.58 1.58 0 001.19.5 1.83 1.83 0 00.89-.16 1 1 0 00.5-.57h2a3.26 3.26 0 01-1.25 1.63 3.84 3.84 0 01-2.14.56 3.58 3.58 0 01-3-1.26 4 4 0 01-.77-2.54 4 4 0 011-2.88 3.42 3.42 0 012.56-1 3.55 3.55 0 012.7 1.05 4.61 4.61 0 011 3.34h-5.18a1.91 1.91 0 00.5 1.32zM87 5.68h-3.23v8.46H81.6V5.67h-3.19V3.94h8.53zm-10.09-3v12.6h35L118 2.72zm15.07 5.8a1.86 1.86 0 01.47 1.29h-3.13a1.71 1.71 0 01.43-1.26 1.45 1.45 0 011.09-.48 1.48 1.48 0 011.09.49zm-27.44 1.4a6.34 6.34 0 00-.06-1.07 1.39 1.39 0 00-.58-1 2.15 2.15 0 00-1.24-.32 1.56 1.56 0 00-1.42.51 4.82 4.82 0 00-.3 2.1q0 .64.06 1.29a1.65 1.65 0 00.31.82 1.27 1.27 0 00.51.34 4.11 4.11 0 00.7.13 3 3 0 01.59-.09 2.87 2.87 0 00.65-.12 1.16 1.16 0 00.46-.32 3.73 3.73 0 00.32-1.94zm0-7.1h1.94V14h-1.91l.09-1.17h-.06a2.41 2.41 0 01-2.44 1.26 3.16 3.16 0 01-2.26-.65 2 2 0 01-.59-.9 4.08 4.08 0 01-.23-1.09v-1.26a15.7 15.7 0 01.1-2.06 2.56 2.56 0 01.62-1.33 2 2 0 01.89-.56 4.68 4.68 0 011.44-.2c1.31 0 2.12.38 2.44 1.14h.06zm-8.8 8.82a.88.88 0 00-.51-.9 3 3 0 00-1.23-.21c-.5 0-.87 0-1.06.08a.7.7 0 00-.5.27 1.12 1.12 0 00-.25.79 1.71 1.71 0 00.18.83.76.76 0 00.5.29 6.92 6.92 0 002.1 0 1 1 0 00.59-.35 1.63 1.63 0 00.18-.8zm1.91-2.79V14h-1.91l.09-1h-.06a1.36 1.36 0 01-.87.88 6 6 0 01-1.69.2 3.18 3.18 0 01-2.32-.65 2.37 2.37 0 01-.6-1.81A2.29 2.29 0 0151 9.76a3.67 3.67 0 012.3-.54 8.36 8.36 0 011 0 2.12 2.12 0 01.81.25 1.21 1.21 0 01.57.61h.08V8.92a2.35 2.35 0 00-.17-1 .86.86 0 00-.42-.36 3 3 0 00-1.1-.14 5.45 5.45 0 00-.84.06 1 1 0 00-.42.2 1.13 1.13 0 00-.27.85h-1.95a2.14 2.14 0 01.83-2 4.38 4.38 0 012.31-.45H54a5 5 0 013 .64 2.59 2.59 0 01.65 2.09zm12.15.45h3.57a2.39 2.39 0 00-.27-1.44.68.68 0 00-.29-.18 1.89 1.89 0 00-.41-.1h-.85a7.79 7.79 0 00-1 .09.88.88 0 00-.73.77 6.54 6.54 0 00-.02.86zm0 1.2a2.09 2.09 0 010 .43 5.59 5.59 0 00.13 1 .85.85 0 00.38.56 2.81 2.81 0 00.56.18 7.87 7.87 0 00.84 0 7.25 7.25 0 00.93-.05.9.9 0 00.47-.2 1.1 1.1 0 00.3-.89h1.95a2.5 2.5 0 01-.75 2.05 2.33 2.33 0 01-1.11.43 15.05 15.05 0 01-1.78.1c-.42 0-.84 0-1.27-.06a4.62 4.62 0 01-1-.24 1.9 1.9 0 01-.78-.53 2.65 2.65 0 01-.67-1.32 14.19 14.19 0 01-.13-1.92c0-1.56.27-2.6.81-3.13a4.1 4.1 0 012.88-.78 4.92 4.92 0 012.84.64 2 2 0 01.61 1 5.79 5.79 0 01.24 1.17c0 .37 0 .92.07 1.63zm-62.43.14a3 3 0 010 .5 2.88 2.88 0 01-.09.4.91.91 0 01-.22.33 1.68 1.68 0 01-.88.39H4.87a9.09 9.09 0 01-1.28 0 1.67 1.67 0 01-.8-.33c-.38-.25-.57-.94-.57-2.06V6.88A2.64 2.64 0 012.66 5a1.42 1.42 0 01.71-.36 5.75 5.75 0 011.31-.1H5a3.33 3.33 0 011.91.33 1.31 1.31 0 01.34 1v.7h2.18V5.38a4.27 4.27 0 00-.23-1.06 2.13 2.13 0 00-.61-.92 2.35 2.35 0 00-.95-.5 5.27 5.27 0 00-1.18-.18H4.85a13.93 13.93 0 00-1.58.08 5.45 5.45 0 00-1.38.33 2.37 2.37 0 00-1 .71A3 3 0 00.26 5 5.6 5.6 0 000 6.31V8.5c0 .97 0 1.67.05 2.22a5.94 5.94 0 00.24 1.44 2.52 2.52 0 00.64 1.06 4.66 4.66 0 003.29.91h.91A11.91 11.91 0 006.44 14a4.12 4.12 0 002.26-.67A3 3 0 009.54 11v-1H7.37v.62zm8.54 1a.89.89 0 00-.5-.9 3.11 3.11 0 00-1.28-.21c-.5 0-.86 0-1.06.08a.71.71 0 00-.48.27 1.16 1.16 0 00-.24.79 1.85 1.85 0 00.2.83.76.76 0 00.51.29 5.55 5.55 0 001 .08 6.58 6.58 0 001.09-.08 1 1 0 00.59-.35 1.51 1.51 0 00.17-.8zm1.91-2.79V14h-1.91l.09-1h-.06a1.36 1.36 0 01-.88.88 6 6 0 01-1.69.2 3.18 3.18 0 01-2.32-.65 2.41 2.41 0 01-.6-1.81 2.29 2.29 0 01.69-1.9 3.69 3.69 0 012.3-.54 8.36 8.36 0 011 0 2.07 2.07 0 01.81.25 1.17 1.17 0 01.57.61h.08V8.92a2.22 2.22 0 00-.17-1 .86.86 0 00-.42-.36 3 3 0 00-1.1-.14 5.33 5.33 0 00-.84.06.86.86 0 00-.42.2 1.1 1.1 0 00-.28.85h-1.91a2.14 2.14 0 01.83-2 4.36 4.36 0 012.27-.44h.26a4.84 4.84 0 013 .65 2.7 2.7 0 01.7 2.07zm30.86-2.53a2.62 2.62 0 00-1.17-.21 2.06 2.06 0 00-2.1 1.14h-.09l.06-1H43.5V14h1.91V9.22a1.91 1.91 0 01.36-1.31 1.33 1.33 0 011.09-.4 1.13 1.13 0 01.67.16.7.7 0 01.26.48 6 6 0 01.06 1h1.79V8.5a3.61 3.61 0 00-.3-1.59 1.54 1.54 0 00-.66-.63zm-23.46.63a3.46 3.46 0 01.29 1.59v.67h-1.78a7.17 7.17 0 00-.06-1 .66.66 0 00-.26-.47 1.25 1.25 0 00-.68-.17 1.37 1.37 0 00-1.08.41 1.89 1.89 0 00-.36 1.32V14h-1.91V6.16h1.88l-.07 1.06h.1a2.05 2.05 0 012.1-1.14 2.55 2.55 0 011.16.21 1.6 1.6 0 01.67.62zm13.72-2.3h-3.37v9.5h-2.19v-9.5H30V2.75h8.9zM34.49.22A7.78 7.78 0 1040 2.49 7.79 7.79 0 0034.49.22z" fill="#fff" fill-rule="evenodd"/></svg>