<svg id="Layer_1" data-name="Layer 1" xmlns="http://www.w3.org/2000/svg" xmlns:xlink="http://www.w3.org/1999/xlink" viewBox="0 0 64.1 25.97"><defs><style>.cls-1{fill:#fff;}.cls-2{fill:url(#linear-gradient);}.cls-3{fill:#ed1c24;}.cls-4{fill:url(#linear-gradient-2);}.cls-5{fill:url(#linear-gradient-3);}</style><linearGradient id="linear-gradient" x1="43.49" y1="54.68" x2="43.49" y2="41.58" gradientTransform="matrix(1, 0, 0, -1, 0, 86)" gradientUnits="userSpaceOnUse"><stop offset="0" stop-color="#fff" stop-opacity="0.5"/><stop offset="1" stop-color="#adadad"/></linearGradient><linearGradient id="linear-gradient-2" x1="57.56" y1="41.51" x2="67.14" y2="41.51" gradientTransform="matrix(1, 0, 0, -1, -11.38, 62.39)" gradientUnits="userSpaceOnUse"><stop offset="0" stop-color="#656565"/><stop offset="1" stop-color="#171717"/></linearGradient><linearGradient id="linear-gradient-3" x1="20.56" y1="41.51" x2="30.14" y2="41.51" xlink:href="#linear-gradient-2"/></defs><path class="cls-1" d="M30.74,31.17s-3.61.54-5.88.64a80.84,80.84,0,0,0-10.33,2,2.35,2.35,0,0,0-.95,1,13.16,13.16,0,0,0-1.52,2.81,8,8,0,0,0,.19,1.54c.1.37,0,.37-.19.73s-.19.45,0,1.62.1,1,.48,1.36A7.32,7.32,0,0,0,15,44.3c1.19.19.4.31,1.61.36h.19l15.64,1.45h29.5l5.79-2,6.54-.81a1.64,1.64,0,0,0,.67-.82c.09-.45.38-3.35-.29-3.89a5.07,5.07,0,0,1-.85-.82,12.69,12.69,0,0,0,0-3.89l.57-.1s.19-1-1.61-3.25-3.58-4.44-3.58-4.44c.39-.26.09-.23.57-.2.66.08.85-.73.66-.82s-5.12-.55-5.12-.55-8.48-.47-13.22-.47-10.62.81-14.22,2.81S30.74,31.17,30.74,31.17Z" transform="translate(-11.38 -23.61)"/><path class="cls-2" d="M64.58,31.37c-.54.29-5.39.1-5.87.53h-.08L27.2,33.32h-.05l-9.3,4.55-3,.63a.16.16,0,0,0-.16.18h0v.59a.24.24,0,0,0,0,.12l1.24,1.52a.13.13,0,0,0,.16.08,1.53,1.53,0,0,1,1.25.32c.65.42.23,1.45,0,2a.23.23,0,0,0,0,.27h.09l1.82.09a.16.16,0,0,0,.15-.17A13.12,13.12,0,0,1,19.73,42a4.77,4.77,0,0,1,1.17-2c2.78-3,8.57-1.82,10.25,1a18.63,18.63,0,0,1,.93,3.26.15.15,0,0,0,.15.15H55.08c.08,0,.14-.07.15-.17.12-1,1.9-5.63,5.9-6.09a6.67,6.67,0,0,1,7.39,4.14.17.17,0,0,0,.15.12l3.49-.54a.19.19,0,0,0,.14-.2v-4a.17.17,0,0,0-.15-.19h-.08S64.7,31.37,64.58,31.37Z" transform="translate(-11.38 -23.61)"/><polygon class="cls-3" points="59.21 8.18 57.69 8.18 57.69 10.38 60.48 12.59 61.35 12.59 60.54 9.35 59.21 8.18"/><path d="M61.94,46.62H32.39L16.77,45.17h-.16c-1.26-.06-.51-.18-1.75-.38a8,8,0,0,1-2.74-1.63L12,43a1.48,1.48,0,0,1-.39-1,1.05,1.05,0,0,0-.07-.43c-.19-1.17-.23-1.41,0-1.91,0-.08.08-.15.13-.23v-.14a7.88,7.88,0,0,1-.21-1.68c0-.69,1.59-3,1.61-3.08l.09-.14a2.38,2.38,0,0,1,1.06-1,78.65,78.65,0,0,1,10.54-2c2-.09,5.06-.51,5.7-.61.61-.4,3.81-2.51,7-4.31,3.84-2.12,10-2.86,14.49-2.86,4.7,0,13,.51,13.24.52h0a41.27,41.27,0,0,1,5.31.59.76.76,0,0,1,.3,1,.9.9,0,0,1-.63.7c.49.52,1.59,2.35,2.86,3.91,1.85,2.32,1.75,3.45,1.71,3.66a.51.51,0,0,1-.43.4h0a14.74,14.74,0,0,1-.08,3.32,5.25,5.25,0,0,0,.65.6c1,.82.46,4.33.46,4.37a2.19,2.19,0,0,1-.89,1.14.62.62,0,0,1-.23.07l-6.54.82-5.68,2Zm-29.47-1H61.9l5.76-2,6.41-.8a1,1,0,0,0,.35-.43c.15-.73.23-3.08-.11-3.41a5.91,5.91,0,0,1-1-1,.52.52,0,0,1-.09-.34,11.36,11.36,0,0,0,0-3.68.51.51,0,0,1,0-.42.52.52,0,0,1,.36-.23h.09a7.33,7.33,0,0,0-1.46-2.54c-1.8-2.25-3.25-4.2-3.25-4.23-.16-.22-.3-1.11.06-1.19L65.26,25c-.68,0-8.57-.51-13.19-.51-4.35,0-10.3.72-14,2.74s-7,4.3-7.07,4.32a.58.58,0,0,1-.22.08c-.15,0-3.66.56-5.94.64a84.88,84.88,0,0,0-10.13,1.91,1.48,1.48,0,0,0-.61.63L14,35a16,16,0,0,0-1.39,2.54,7.34,7.34,0,0,0,.17,1.4,1,1,0,0,1-.12.9,1,1,0,0,0-.1.17c-.12.23-.13.24,0,1.33a.91.91,0,0,0,.07.43,2,2,0,0,1,.08.43l.07.09.15.16a6.65,6.65,0,0,0,2.2,1.28c1.15.18.3.3,1.46.35h.24Zm-17-3H15c-.49-.17-1.25-2.47-1.31-2.87a.25.25,0,0,1,.19-.3h0a.27.27,0,0,1,.3.21h0a9,9,0,0,0,1,2.45A3.9,3.9,0,0,0,16.54,42a.26.26,0,0,1,.35-.07h0a.24.24,0,0,1,.1.1.27.27,0,0,1,0,.3,3.15,3.15,0,0,1-1.57.29Zm.78-4.7a4.76,4.76,0,0,1-1.13-.11c-1-.16-1-.22-1.09-.41a.47.47,0,0,1,0-.4h0a2.68,2.68,0,0,1,1.43-1.61,51.94,51.94,0,0,1,5.64-1.48c.1,0,.19.07.21.22a.39.39,0,0,1-.11.37c-1.4,1-4.7,3.39-5,3.39ZM14.51,37a12.18,12.18,0,0,0,1.7.23,29.1,29.1,0,0,0,3.55-2.5A29.81,29.81,0,0,0,15.53,36a2.17,2.17,0,0,0-1,1.07ZM45.8,34.85a.27.27,0,0,1-.33-.2.29.29,0,0,1,.2-.33h.13l3.38-.12a.26.26,0,0,1,.27.25h0a.25.25,0,0,1-.23.27h0l-3.38.12Zm14.8-.8a.26.26,0,0,1,0-.52h0l3.4-.12a.27.27,0,0,1,.33.19h0a.29.29,0,0,1-.2.33H64l-3.38.11Zm-26-1.23a.25.25,0,0,1-.2-.09.24.24,0,0,1,0-.23,13.8,13.8,0,0,1,2.79-2.92,26.82,26.82,0,0,1,5.1-2.85,22.58,22.58,0,0,1,5.15-.88c1.21-.13,2.2-.13,2.23-.13a.3.3,0,0,1,.2.08.26.26,0,0,1,0,.21l-1.12,6.17a.23.23,0,0,1-.23.21Zm14.73-6.64c-.63,0-2.19.13-2.19.13a24.68,24.68,0,0,0-4.74.85,26.48,26.48,0,0,0-5,2.76,17,17,0,0,0-2.34,2.31l13.22-.41Zm1.46,6.21a.31.31,0,0,1-.21-.07.22.22,0,0,1-.08-.2l.65-6.29a.28.28,0,0,1,.29-.24h0l9.64.12a.37.37,0,0,1,.2.07l5,4.53a.23.23,0,0,1,.07.27.32.32,0,0,1-.26.17,3.16,3.16,0,0,0-1,.23l-3.81.84h-.11l-10.36.54Zm.89-6.29-.53,5.77,10-.51,3.68-.82a2.54,2.54,0,0,1,.66-.21L61,26.21Zm8.81,5.46V26.1c0-.14.5-.14.5,0v5.42c0,.14-.47.18-.47,0ZM72.71,36.2h.12a.5.5,0,0,1-.26-.08l-2.75-2.2a.16.16,0,0,1-.06-.13v-2.2c0-.11.15-.19.33-.19h1.53c.18,0,.33.08.33.19s-.15.2-.33.2H70.37v1.93L73,35.8h0a.34.34,0,0,1,0,.2c0,.11-.14.2-.32.2h0Z" transform="translate(-11.38 -23.61)"/><circle class="cls-4" cx="50.97" cy="20.88" r="4.79"/><path d="M62.35,49.58a5.09,5.09,0,1,1,5.08-5.1h0A5.1,5.1,0,0,1,62.35,49.58Zm0-9.58a4.49,4.49,0,1,0,4.49,4.49h0A4.5,4.5,0,0,0,62.35,40Z" transform="translate(-11.38 -23.61)"/><circle class="cls-1" cx="50.97" cy="20.88" r="2.54"/><path d="M62.35,47.34a2.85,2.85,0,1,1,2.84-2.86h0A2.86,2.86,0,0,1,62.35,47.34Zm0-5.09a2.25,2.25,0,1,0,2.24,2.26h0a2.24,2.24,0,0,0-2.24-2.24h0Z" transform="translate(-11.38 -23.61)"/><circle class="cls-5" cx="13.97" cy="20.88" r="4.79"/><path d="M25.35,49.58a5.09,5.09,0,1,1,5.08-5.1h0A5.1,5.1,0,0,1,25.35,49.58Zm0-9.58a4.49,4.49,0,1,0,4.49,4.49h0A4.5,4.5,0,0,0,25.35,40Z" transform="translate(-11.38 -23.61)"/><circle class="cls-1" cx="13.97" cy="20.88" r="2.54"/><path d="M25.35,47.34a2.85,2.85,0,1,1,2.84-2.86h0A2.86,2.86,0,0,1,25.35,47.34Zm0-5.09a2.25,2.25,0,1,0,2.24,2.26h0a2.24,2.24,0,0,0-2.24-2.24h0Z" transform="translate(-11.38 -23.61)"/></svg>