<svg xmlns="http://www.w3.org/2000/svg" viewBox="0 0 48 48"><defs><style>.cls-1,.cls-2{fill:#fff;}.cls-1{fill-opacity:0;opacity:0;}.cls-2{stroke:#efefef;stroke-width:0.75px;}.cls-3{fill:#e0e0e0;}.cls-4{fill:#d9d9d9;}.cls-5{fill:#eee;}.cls-6{fill:#ca3737;}.cls-7{fill:#f5f5f5;}.cls-8{fill:#e84f4b;}</style></defs><title>gmail</title><g id="Layer_2" data-name="Layer 2"><g id="Layer_1-2" data-name="Layer 1"><rect id="Rectangle" class="cls-1" width="48" height="48"/><circle id="Oval" class="cls-2" cx="24" cy="24" r="18"/><path id="Path" class="cls-3" d="M13.91,32.68H34.09A1.92,1.92,0,0,0,36,30.77h0V16.58a1.9,1.9,0,0,0-.56-1.35,1.93,1.93,0,0,0-1.35-.55H13.91a1.93,1.93,0,0,0-1.35.55A1.9,1.9,0,0,0,12,16.58h0V30.77A1.92,1.92,0,0,0,13.91,32.68Z"/><path class="cls-4" d="M25.09,32.68h9A1.92,1.92,0,0,0,36,30.77h0V16.58a1.9,1.9,0,0,0-.56-1.35,1.93,1.93,0,0,0-1.35-.55H13.91a1.93,1.93,0,0,0-1.35.55A1.9,1.9,0,0,0,12,16.58h0Z"/><path class="cls-5" d="M14.59,32.68h19.5A1.92,1.92,0,0,0,36,30.77h0V16.86Z"/><path class="cls-3" d="M25,32.68h9.14A1.91,1.91,0,0,0,36,30.77h0V16.86l-14.86,11Z"/><path class="cls-6" d="M34.09,15.77H13.91c-1.06,0-1.91-.24-1.91.81V30.77a1.92,1.92,0,0,0,1.91,1.91h.81V17.08H33.28v15.6h.81A1.92,1.92,0,0,0,36,30.77h0V16.58C36,15.53,35.15,15.77,34.09,15.77Z"/><path class="cls-7" d="M34.09,14.68H13.91a1.9,1.9,0,0,0-1.35.54A1.94,1.94,0,0,0,12,16.56h0c0,.66.83,1.2.83,1.2l11.17,8,11.17-7.92s.83-.57.83-1.2a1.89,1.89,0,0,0-.53-1.35,1.91,1.91,0,0,0-1.33-.58h0Z"/><path class="cls-8" d="M34.5,14.71,24,22,13.5,14.71A1.91,1.91,0,0,0,12,16.58c0,.66.83,1.2.83,1.2l11.17,8,11.17-7.92s.83-.57.83-1.2a1.91,1.91,0,0,0-1.5-1.95Z"/></g></g></svg>