<svg id="Layer_1" data-name="Layer 1" xmlns="http://www.w3.org/2000/svg" xmlns:xlink="http://www.w3.org/1999/xlink" viewBox="0 0 70.84 28.07"><defs><style>.cls-1{fill:#fff;}.cls-2{fill:#ed1c24;}.cls-3{fill:url(#linear-gradient);}.cls-4{fill:url(#linear-gradient-2);}.cls-5{fill:url(#linear-gradient-3);}</style><linearGradient id="linear-gradient" x1="45.99" y1="55.82" x2="45.99" y2="42.96" gradientTransform="matrix(1, 0, 0, -1, 0, 86)" gradientUnits="userSpaceOnUse"><stop offset="0" stop-color="#fff" stop-opacity="0.5"/><stop offset="1" stop-color="#adadad"/></linearGradient><linearGradient id="linear-gradient-2" x1="60.95" y1="42.43" x2="71.53" y2="42.43" gradientTransform="matrix(1, 0, 0, -1, -9.41, 64.95)" gradientUnits="userSpaceOnUse"><stop offset="0" stop-color="#656565"/><stop offset="1" stop-color="#171717"/></linearGradient><linearGradient id="linear-gradient-3" x1="17.26" y1="42.43" x2="27.84" y2="42.43" xlink:href="#linear-gradient-2"/></defs><path class="cls-1" d="M27.71,29.06S16.63,30.9,12.57,31.83a2.3,2.3,0,0,0-1,1,14.12,14.12,0,0,0-1.52,2.94,8.05,8.05,0,0,0,.19,1.62c.1.38,0,.38-.19.76s-.19.47,0,1.7.1,1,.48,1.42c.7.68-.46,1.21.46,1.56,1.19.19,2.73.36,2.73.36l15.64,1.52h29.5L73.7,42.62l5.51-.77a1.76,1.76,0,0,0,.67-.85c.09-.48.38-3.51-.29-4.08a4.61,4.61,0,0,1-.85-.86,13.88,13.88,0,0,0,0-4.07l.57-.1s.19-1-1.61-3.41S74.28,24,74.28,24A1.48,1.48,0,0,0,73,22.4c-5.2-.67-20.17-.78-24-.78-4.74,0-10.62.85-14.22,2.94S27.71,29.06,27.71,29.06Z" transform="translate(-9.41 -21.05)"/><path class="cls-2" d="M76.36,31.84a28.21,28.21,0,0,1,.38,4s-.85.21-1.06,0-1.82-2.78-2.24-3.45a.13.13,0,0,1,0-.18h0l2.6-.52A.27.27,0,0,1,76.36,31.84Z" transform="translate(-9.41 -21.05)"/><path d="M58.91,45.24H29.36L13.74,43.72a7.82,7.82,0,0,1-1.67-.17c-1-.37-1.13-1.16-1.91-1.91L10,41.49a22.5,22.5,0,0,1-.54-3.83,9.32,9.32,0,0,1,0-1.83c0-.73,1.59-3.2,1.61-3.23s.52-1,1.15-1.22c4.13-1,14.53-2.7,15.17-2.8.61-.42,3.81-2.63,7-4.51,3.84-2.22,10-2.95,14.49-3,12.65-.15,23.41.83,23.41.83,2.07.22,2.42.7,2.42.7s.45.78.3,1.14a.9.9,0,0,0-.22.74s1.73,1.88,3,3.52c1.85,2.43,1.75,3.61,1.71,3.83a.5.5,0,0,1-.43.42A28.88,28.88,0,0,1,79,35.73a6.35,6.35,0,0,0,.65.62c1,.86.46,4.54.46,4.58a2.17,2.17,0,0,1-.89,1.19.63.63,0,0,1-.23.08l-5.37.93L59,45.23ZM29.44,44.18H58.87L73.63,42.1l5.24-.91a1,1,0,0,0,.35-.45c.15-.76.23-3.22-.11-3.57a5.91,5.91,0,0,1-1-1,.64.64,0,0,1-.09-.36A12.48,12.48,0,0,0,78,32a.56.56,0,0,1,0-.44.55.55,0,0,1,.36-.25h.09A7.64,7.64,0,0,0,77,28.62c-1.8-2.36-3.07-3.79-3.07-3.82a1.84,1.84,0,0,1-.09-.87,2.91,2.91,0,0,1,.16-.5L72.42,23c-.68,0-9.54-.82-23.38-.82-4.35,0-10.3.75-14,2.87s-7,4.5-7.07,4.52a.43.43,0,0,1-.22.09c-.15,0-11,1.8-15,2.69a1.45,1.45,0,0,0-.61.66l-.12.2a15.65,15.65,0,0,0-1.39,2.66,6.74,6.74,0,0,0,0,1.42A14.48,14.48,0,0,0,11,41c.46.61.56,1.25,1.37,1.55a5.52,5.52,0,0,0,1.46.13ZM42.77,32.47a.26.26,0,0,1-.31-.2h0a.27.27,0,0,1,.21-.32h0a.17.17,0,0,1,.1,0l3.38-.12a.26.26,0,0,1,.27.25h0a.25.25,0,0,1-.23.27h0l-3.38.12Zm14.8-.8a.26.26,0,0,1,0-.52h0L61,31a.27.27,0,0,1,.13.53H61l-3.38.11Zm-26-1.23a.28.28,0,0,1-.21-.1.26.26,0,0,1,0-.24,15.1,15.1,0,0,1,3-3.1,28.33,28.33,0,0,1,5.38-3,27.68,27.68,0,0,1,5.11-.93h.32C46.43,23,47.47,23,47.51,23a.27.27,0,0,1,.21.09.28.28,0,0,1,0,.22l-1.18,6.51a.25.25,0,0,1-.25.22Zm15.54-7a13.35,13.35,0,0,0-2,.13H44.8a26.49,26.49,0,0,0-5,.9,28.55,28.55,0,0,0-5.24,2.91,17.8,17.8,0,0,0-2.47,2.44L46,29.39ZM48.64,30a.27.27,0,0,1-.19-.08.27.27,0,0,1-.07-.21L49,23.07a.26.26,0,0,1,.26-.25h0l10.68.12a.45.45,0,0,1,.25.09l2.53,6.22s-.62.19-.65.18L48.63,30Zm.8-6.64L49,29.44l13-.5-2.22-5.47Zm23.94,5.27a70.43,70.43,0,0,1-9.07.4A.82.82,0,0,1,64,29l-2.35-5.48s-.14-.25,0-.37a.36.36,0,0,1,.24-.09,50.19,50.19,0,0,1,6.8.77A23.65,23.65,0,0,1,71,24.4a.26.26,0,0,1,.15.12l2.52,3.69a.24.24,0,0,1,0,.28.3.3,0,0,1-.33.13Zm-8.95-.17a51.25,51.25,0,0,0,8.4-.44l-2.21-3.18c-.73-.21-1.46-.39-2.21-.54-.42-.07-3.32-.46-6-.79ZM76.69,35.3a.8.8,0,0,1-.61-.19c-.15-.14-.92-1.32-2.28-3.5a.43.43,0,0,1,0-.41.42.42,0,0,1,.31-.25l2.52-.54a.62.62,0,0,1,.44.09.56.56,0,0,1,.24.38h0a26.82,26.82,0,0,1,.39,4,.28.28,0,0,1-.24.29,3.34,3.34,0,0,1-.77.12Zm-.19-.6a1.69,1.69,0,0,0,.55,0,29.41,29.41,0,0,0-.37-3.62l-2.22.48ZM13.33,36.45a1.21,1.21,0,0,1-.9-.23.44.44,0,0,1-.08-.45,26.23,26.23,0,0,1,1.73-3,.3.3,0,0,1,.32-.14l2.12.42a.31.31,0,0,1,.21.16.32.32,0,0,1,0,.27L15.67,36a.31.31,0,0,1-.22.18A10.89,10.89,0,0,1,13.33,36.45ZM13,35.82a8.42,8.42,0,0,0,2.18-.23L16,33.51l-1.55-.31C14.06,33.92,13.24,35.26,13,35.82Zm-.42,5.35a.3.3,0,0,1-.24-.09c-.71-.72-.53-3-.51-3.22s.34-.28.34-.28.29.17.28.34c-.08.84-.06,2.33.33,2.72a.31.31,0,0,1,0,.44h0a.4.4,0,0,1-.21.09Z" transform="translate(-9.41 -21.05)"/><path class="cls-3" d="M77,37.17c-2.64-.11-4.75-5.82-4.75-5.82-2.34-1.7-7.66-1-7.81-1a10.31,10.31,0,0,0-1.77,1h-.09l-36.5,1.37H26L15.24,37l-1.61.48c-.1,0-.21,4.36,1.08,4.82h1.51a.18.18,0,0,0,.18-.16,13,13,0,0,1,.43-1.38,4.31,4.31,0,0,1,1.35-1.88c2.88-2.69,6.73-2.67,9.37.27h0a7.23,7.23,0,0,1,.55.69,24,24,0,0,1,1.22,2.92.16.16,0,0,0,.18.14h0l30.09.1a.18.18,0,0,0,.18-.16c.13-.88,1-5.23,5.68-5.66A7.14,7.14,0,0,1,72.91,41a.19.19,0,0,0,.18.11l5.16-.5a.19.19,0,0,0,.16-.19l-.6-3.13a.18.18,0,0,0-.16-.18h0Z" transform="translate(-9.41 -21.05)"/><circle class="cls-4" cx="56.83" cy="22.52" r="5.29"/><path d="M66.24,49.12a5.55,5.55,0,1,1,5.56-5.54h0a5.54,5.54,0,0,1-5.56,5.54Zm0-10.58a5,5,0,1,0,5,5A5,5,0,0,0,66.24,38.54Z" transform="translate(-9.41 -21.05)"/><circle class="cls-1" cx="56.83" cy="22.52" r="2.82"/><path d="M66.24,46.62a3.09,3.09,0,1,1,3.09-3.09h0v.09A3.07,3.07,0,0,1,66.24,46.62Zm0-5.64a2.52,2.52,0,1,0,.08,0Z" transform="translate(-9.41 -21.05)"/><circle class="cls-5" cx="13.14" cy="22.52" r="5.29"/><path d="M22.55,49.12a5.55,5.55,0,1,1,5.56-5.54h0a5.54,5.54,0,0,1-5.56,5.54Zm0-10.58a5,5,0,1,0,5,5A5,5,0,0,0,22.55,38.54Z" transform="translate(-9.41 -21.05)"/><circle class="cls-1" cx="13.14" cy="22.52" r="2.82"/><path d="M22.55,46.62a3.09,3.09,0,1,1,3.09-3.09h0v.09A3.07,3.07,0,0,1,22.55,46.62Zm0-5.64a2.52,2.52,0,1,0,.08,0Z" transform="translate(-9.41 -21.05)"/></svg>