<svg xmlns="http://www.w3.org/2000/svg" viewBox="0 0 48 48"><defs><style>.cls-1,.cls-3{fill:#fff;}.cls-1{fill-opacity:0;opacity:0;}.cls-2{fill:#55acee;}</style></defs><title>twitter</title><g id="Layer_2" data-name="Layer 2"><g id="Layer_1-2" data-name="Layer 1"><rect id="Rectangle" class="cls-1" width="48" height="48"/><path id="Path" class="cls-2" d="M23.93,6h.14A18,18,0,0,1,42,24h0A18,18,0,0,1,24.07,42h-.14A18,18,0,0,1,6,24H6A18,18,0,0,1,23.93,6Z"/><path id="rect2989" class="cls-3" d="M28.31,14.64a4.71,4.71,0,0,0-4.6,4.72,4.81,4.81,0,0,0,.12,1.07,13.34,13.34,0,0,1-9.74-4.82A4.57,4.57,0,0,0,13.44,18a4.75,4.75,0,0,0,2.16,3.79,4.65,4.65,0,0,1-2.15-.59h0a4.84,4.84,0,0,0,3.79,4.64A4.31,4.31,0,0,1,16,26a5.14,5.14,0,0,1-.88-.08,4.81,4.81,0,0,0,4.41,3.28,9.6,9.6,0,0,1-5.87,2H12.58a13.42,13.42,0,0,0,18.59-4.14,13.65,13.65,0,0,0,2.11-7.19v-.6a10.56,10.56,0,0,0,2.4-2.41A9.55,9.55,0,0,1,33,17.6,4.71,4.71,0,0,0,35,15a9.56,9.56,0,0,1-3,1.21,4.68,4.68,0,0,0-3.46-1.5Z"/></g></g></svg>